<svg xmlns="http://www.w3.org/2000/svg" viewBox="0 0 760 420" font-family="Segoe UI, Arial, sans-serif">
  <rect width="760" height="420" fill="#f8fafc"/>
  <text x="380" y="30" text-anchor="middle" font-size="17" font-weight="bold" fill="#35495e">Hari 3 — Todo List (directives &amp; class binding)</text>

  <rect x="170" y="55" width="420" height="340" rx="10" fill="#ffffff" stroke="#94a3b8" stroke-width="1.5"/>
  <text x="380" y="90" text-anchor="middle" font-size="16" font-weight="bold" fill="#35495e">📝 Todo List</text>

  <rect x="200" y="105" width="270" height="36" rx="8" fill="#ffffff" stroke="#cbd5e1" stroke-width="1.5"/>
  <text x="212" y="128" font-size="12" fill="#94a3b8">Tulis todo... (v-model.trim)</text>
  <rect x="480" y="105" width="80" height="36" rx="8" fill="#42b883"/>
  <text x="520" y="128" text-anchor="middle" font-size="13" fill="#ffffff">Tambah</text>

  <rect x="200" y="155" width="60" height="26" rx="13" fill="#35495e"/>
  <text x="230" y="172" text-anchor="middle" font-size="12" fill="#ffffff">All</text>
  <rect x="268" y="155" width="70" height="26" rx="13" fill="#ffffff" stroke="#cbd5e1"/>
  <text x="303" y="172" text-anchor="middle" font-size="12" fill="#64748b">Active</text>
  <rect x="346" y="155" width="70" height="26" rx="13" fill="#ffffff" stroke="#cbd5e1"/>
  <text x="381" y="172" text-anchor="middle" font-size="12" fill="#64748b">Done</text>

  <rect x="200" y="195" width="360" height="38" rx="8" fill="#f1f5f9"/>
  <rect x="212" y="205" width="18" height="18" rx="4" fill="#ffffff" stroke="#94a3b8"/>
  <text x="242" y="218" font-size="13" fill="#35495e">Belajar v-model modifier</text>
  <rect x="522" y="203" width="26" height="22" rx="5" fill="#fee2e2"/>
  <text x="535" y="219" text-anchor="middle" font-size="12" fill="#dc2626">🗑</text>

  <rect x="200" y="241" width="360" height="38" rx="8" fill="#ecfdf5"/>
  <rect x="212" y="251" width="18" height="18" rx="4" fill="#42b883"/>
  <path d="M 216 260 L 220 264 L 227 255" stroke="#ffffff" stroke-width="2" fill="none"/>
  <text x="242" y="264" font-size="13" fill="#94a3b8" text-decoration="line-through">Setup project Vite</text>
  <rect x="522" y="249" width="26" height="22" rx="5" fill="#fee2e2"/>
  <text x="535" y="265" text-anchor="middle" font-size="12" fill="#dc2626">🗑</text>

  <rect x="200" y="287" width="360" height="38" rx="8" fill="#f1f5f9"/>
  <rect x="212" y="297" width="18" height="18" rx="4" fill="#ffffff" stroke="#94a3b8"/>
  <text x="242" y="310" font-size="13" fill="#35495e">Coba event modifier .prevent</text>
  <rect x="522" y="295" width="26" height="22" rx="5" fill="#fee2e2"/>
  <text x="535" y="311" text-anchor="middle" font-size="12" fill="#dc2626">🗑</text>

  <rect x="200" y="340" width="360" height="34" rx="8" fill="#fffbeb" stroke="#fbbf24" stroke-dasharray="4 3"/>
  <text x="380" y="361" text-anchor="middle" font-size="12" fill="#b45309">v-if list kosong → "Belum ada todo"</text>

  <defs><marker id="a3" markerWidth="8" markerHeight="8" refX="7" refY="4" orient="auto"><path d="M0,0 L8,4 L0,8 Z" fill="#42b883"/></marker></defs>
  <text x="45" y="212" font-size="12" fill="#42b883" font-weight="bold">v-for + :key</text>
  <path d="M 130 220 L 195 220" stroke="#42b883" stroke-width="1.5" marker-end="url(#a3)"/>
  <text x="45" y="256" font-size="11" fill="#047857">class binding:</text>
  <text x="45" y="271" font-size="11" fill="#047857" font-family="Consolas, monospace">:class="{done}"</text>
  <path d="M 140 262 L 195 262" stroke="#42b883" stroke-width="1.5" marker-end="url(#a3)"/>

  <text x="620" y="170" font-size="11" fill="#f59e0b">filter =</text>
  <text x="620" y="185" font-size="11" fill="#f59e0b">computed</text>
</svg>
