<svg xmlns="http://www.w3.org/2000/svg" viewBox="0 0 760 460" font-family="Segoe UI, Arial, sans-serif">
  <rect width="760" height="460" fill="#f8fafc"/>
  <text x="380" y="30" text-anchor="middle" font-size="17" font-weight="bold" fill="#35495e">Hari 13–14 — Final Project: Aplikasi Manajemen Data</text>

  <defs><marker id="a13" markerWidth="8" markerHeight="8" refX="7" refY="4" orient="auto"><path d="M0,0 L8,4 L0,8 Z" fill="#35495e"/></marker></defs>

  <!-- login -->
  <rect x="40" y="70" width="150" height="110" rx="10" fill="#fef2f2" stroke="#ef4444" stroke-width="2"/>
  <text x="115" y="95" text-anchor="middle" font-size="13" font-weight="bold" fill="#dc2626">🔐 Login</text>
  <rect x="55" y="105" width="120" height="20" rx="4" fill="#ffffff" stroke="#cbd5e1"/>
  <rect x="55" y="131" width="120" height="20" rx="4" fill="#ffffff" stroke="#cbd5e1"/>
  <rect x="55" y="157" width="120" height="18" rx="9" fill="#ef4444"/>
  <text x="115" y="170" text-anchor="middle" font-size="9" fill="#ffffff">Masuk</text>

  <!-- list -->
  <rect x="240" y="70" width="240" height="180" rx="10" fill="#ffffff" stroke="#42b883" stroke-width="2"/>
  <text x="255" y="95" font-size="13" font-weight="bold" fill="#35495e">📋 List (/items)</text>
  <rect x="395" y="80" width="70" height="20" rx="10" fill="#42b883"/>
  <text x="430" y="94" text-anchor="middle" font-size="9" fill="#ffffff">+ Tambah</text>
  <rect x="255" y="105" width="120" height="18" rx="4" fill="#ffffff" stroke="#cbd5e1"/>
  <text x="262" y="118" font-size="9" fill="#94a3b8">🔍 cari...</text>
  <rect x="255" y="132" width="210" height="18" fill="#f1f5f9"/>
  <line x1="255" y1="168" x2="465" y2="168" stroke="#e2e8f0"/>
  <text x="262" y="163" font-size="9" fill="#64748b">Barang A · Elektronik</text>
  <rect x="395" y="154" width="26" height="12" rx="3" fill="#dbeafe"/><text x="408" y="163" text-anchor="middle" font-size="7" fill="#2563eb">Edit</text>
  <rect x="426" y="154" width="32" height="12" rx="3" fill="#fee2e2"/><text x="442" y="163" text-anchor="middle" font-size="7" fill="#dc2626">Hapus</text>
  <text x="262" y="184" font-size="9" fill="#64748b">Barang B · ATK</text>
  <rect x="395" y="175" width="26" height="12" rx="3" fill="#dbeafe"/><text x="408" y="184" text-anchor="middle" font-size="7" fill="#2563eb">Edit</text>
  <rect x="426" y="175" width="32" height="12" rx="3" fill="#fee2e2"/><text x="442" y="184" text-anchor="middle" font-size="7" fill="#dc2626">Hapus</text>
  <rect x="255" y="205" width="18" height="14" rx="3" fill="#f1f5f9"/><text x="264" y="216" text-anchor="middle" font-size="8" fill="#64748b">1</text>
  <rect x="277" y="205" width="18" height="14" rx="3" fill="#f1f5f9"/><text x="286" y="216" text-anchor="middle" font-size="8" fill="#64748b">2</text>
  <text x="305" y="216" font-size="8" fill="#94a3b8">(bonus)</text>
  <text x="255" y="240" font-size="9" fill="#64748b">klik baris → Detail (/items/:id)</text>

  <!-- form -->
  <rect x="530" y="70" width="190" height="180" rx="10" fill="#ffffff" stroke="#8b5cf6" stroke-width="2"/>
  <text x="545" y="95" font-size="13" font-weight="bold" fill="#35495e">✏️ Create / Edit</text>
  <text x="545" y="112" font-size="8" fill="#64748b" font-family="Consolas, monospace">/items/new · /items/:id/edit</text>
  <rect x="545" y="122" width="160" height="22" rx="4" fill="#ffffff" stroke="#cbd5e1"/>
  <rect x="545" y="152" width="160" height="22" rx="4" fill="#ffffff" stroke="#ef4444"/>
  <text x="545" y="190" font-size="8" fill="#dc2626">⚠ validasi per field</text>
  <rect x="545" y="202" width="70" height="22" rx="5" fill="#42b883"/>
  <text x="580" y="217" text-anchor="middle" font-size="9" fill="#ffffff">Simpan</text>
  <rect x="625" y="202" width="60" height="22" rx="5" fill="#ffffff" stroke="#cbd5e1"/>
  <text x="655" y="217" text-anchor="middle" font-size="9" fill="#64748b">Batal</text>

  <!-- arrows -->
  <path d="M 190 125 L 235 125" stroke="#35495e" stroke-width="2" fill="none" marker-end="url(#a13)"/>
  <text x="212" y="115" text-anchor="middle" font-size="9" fill="#64748b">guard ✓</text>
  <path d="M 480 125 L 525 125" stroke="#35495e" stroke-width="2" fill="none" marker-end="url(#a13)"/>
  <path d="M 525 235 L 480 235" stroke="#35495e" stroke-width="2" fill="none" stroke-dasharray="5 3" marker-end="url(#a13)"/>
  <text x="502" y="228" text-anchor="middle" font-size="8" fill="#64748b">simpan</text>

  <!-- architecture strip -->
  <rect x="40" y="290" width="680" height="100" rx="10" fill="#f1f5f9" stroke="#cbd5e1"/>
  <text x="380" y="315" text-anchor="middle" font-size="12" font-weight="bold" fill="#35495e">Arsitektur di balik layar</text>
  <rect x="65" y="330" width="120" height="42" rx="8" fill="#fffbeb" stroke="#f59e0b" stroke-width="2"/>
  <text x="125" y="348" text-anchor="middle" font-size="10" font-weight="bold" fill="#b45309">🍍 Pinia stores</text>
  <text x="125" y="363" text-anchor="middle" font-size="8" fill="#b45309">items · auth</text>
  <rect x="205" y="330" width="120" height="42" rx="8" fill="#ecfdf5" stroke="#42b883" stroke-width="2"/>
  <text x="265" y="348" text-anchor="middle" font-size="10" font-weight="bold" fill="#047857">composables</text>
  <text x="265" y="363" text-anchor="middle" font-size="8" fill="#047857">useFetch · min. 2</text>
  <rect x="345" y="330" width="120" height="42" rx="8" fill="#eff6ff" stroke="#3b82f6" stroke-width="2"/>
  <text x="405" y="348" text-anchor="middle" font-size="10" font-weight="bold" fill="#1d4ed8">fetch wrapper</text>
  <text x="405" y="363" text-anchor="middle" font-size="8" fill="#1d4ed8">src/api/ terpusat</text>
  <rect x="485" y="330" width="100" height="42" rx="8" fill="#f5f3ff" stroke="#8b5cf6" stroke-width="2"/>
  <text x="535" y="348" text-anchor="middle" font-size="10" font-weight="bold" fill="#7c3aed">unit test</text>
  <text x="535" y="363" text-anchor="middle" font-size="8" fill="#7c3aed">min. 5 lulus</text>
  <rect x="605" y="330" width="100" height="42" rx="8" fill="#ffffff" stroke="#94a3b8" stroke-width="2"/>
  <text x="655" y="348" text-anchor="middle" font-size="10" font-weight="bold" fill="#35495e">REST API</text>
  <text x="655" y="363" text-anchor="middle" font-size="8" fill="#64748b">json-server / intern</text>

  <text x="380" y="420" text-anchor="middle" font-size="11" font-weight="bold" fill="#b45309">Wajib: 5 halaman + 404 · auth guard · loading/error/empty · modal konfirmasi delete · README</text>
  <text x="380" y="443" text-anchor="middle" font-size="11" fill="#64748b">Bonus: deploy Netlify/Vercel · Tailwind/PrimeVue · search + pagination — presentasi 20 menit (checkpoint 2)</text>
</svg>
