<svg xmlns="http://www.w3.org/2000/svg" viewBox="0 0 760 400" font-family="Segoe UI, Arial, sans-serif">
  <rect width="760" height="400" fill="#f8fafc"/>
  <text x="380" y="30" text-anchor="middle" font-size="17" font-weight="bold" fill="#35495e">Hari 1 — Setup Project &amp; Struktur SFC</text>

  <!-- folder tree -->
  <rect x="40" y="60" width="230" height="300" rx="10" fill="#35495e"/>
  <text x="60" y="90" font-size="13" font-weight="bold" fill="#ffffff">📁 my-vue-app/</text>
  <text x="75" y="115" font-size="12" fill="#94f7cf" font-family="Consolas, monospace">📁 src/</text>
  <text x="95" y="138" font-size="12" fill="#e2e8f0" font-family="Consolas, monospace">main.js</text>
  <text x="95" y="161" font-size="12" fill="#e2e8f0" font-family="Consolas, monospace">App.vue</text>
  <text x="95" y="184" font-size="12" fill="#e2e8f0" font-family="Consolas, monospace">📁 components/</text>
  <text x="113" y="207" font-size="12" fill="#fbbf24" font-family="Consolas, monospace">ProfileCard.vue</text>
  <text x="75" y="232" font-size="12" fill="#e2e8f0" font-family="Consolas, monospace">index.html</text>
  <text x="75" y="255" font-size="12" fill="#e2e8f0" font-family="Consolas, monospace">package.json</text>
  <text x="75" y="278" font-size="12" fill="#e2e8f0" font-family="Consolas, monospace">vite.config.js</text>
  <text x="60" y="315" font-size="11" fill="#94a3b8">npm create vue@latest</text>
  <text x="60" y="335" font-size="11" fill="#94a3b8">npm run dev</text>

  <!-- SFC anatomy -->
  <rect x="310" y="60" width="240" height="300" rx="10" fill="#ffffff" stroke="#42b883" stroke-width="2"/>
  <text x="430" y="88" text-anchor="middle" font-size="13" font-weight="bold" fill="#35495e">ProfileCard.vue (SFC)</text>
  <rect x="330" y="100" width="200" height="70" rx="6" fill="#ecfdf5" stroke="#42b883"/>
  <text x="340" y="120" font-size="11" fill="#047857" font-family="Consolas, monospace">&lt;script setup&gt;</text>
  <text x="352" y="138" font-size="11" fill="#35495e" font-family="Consolas, monospace">const nama = ref('Budi')</text>
  <text x="340" y="158" font-size="11" fill="#047857" font-family="Consolas, monospace">&lt;/script&gt;</text>
  <rect x="330" y="180" width="200" height="70" rx="6" fill="#eff6ff" stroke="#3b82f6"/>
  <text x="340" y="200" font-size="11" fill="#1d4ed8" font-family="Consolas, monospace">&lt;template&gt;</text>
  <text x="352" y="218" font-size="11" fill="#35495e" font-family="Consolas, monospace">&lt;h1&gt;{{ nama }}&lt;/h1&gt;</text>
  <text x="340" y="238" font-size="11" fill="#1d4ed8" font-family="Consolas, monospace">&lt;/template&gt;</text>
  <rect x="330" y="260" width="200" height="55" rx="6" fill="#fdf4ff" stroke="#a855f7"/>
  <text x="340" y="280" font-size="11" fill="#9333ea" font-family="Consolas, monospace">&lt;style scoped&gt;</text>
  <text x="340" y="300" font-size="11" fill="#9333ea" font-family="Consolas, monospace">&lt;/style&gt;</text>

  <!-- result -->
  <rect x="590" y="100" width="140" height="180" rx="10" fill="#ffffff" stroke="#94a3b8" stroke-width="1.5"/>
  <rect x="590" y="100" width="140" height="24" rx="10" fill="#e2e8f0"/>
  <text x="600" y="117" font-size="9" fill="#64748b">localhost:5173</text>
  <circle cx="660" cy="165" r="22" fill="#e2e8f0" stroke="#94a3b8"/>
  <circle cx="660" cy="159" r="8" fill="#94a3b8"/>
  <path d="M 645 178 Q 660 190 675 178 L 675 184 Q 660 194 645 184 Z" fill="#94a3b8"/>
  <text x="660" y="215" text-anchor="middle" font-size="12" font-weight="bold" fill="#35495e">Budi</text>
  <text x="660" y="235" text-anchor="middle" font-size="10" fill="#64748b">ProfileCard</text>

  <defs><marker id="a1" markerWidth="8" markerHeight="8" refX="7" refY="4" orient="auto"><path d="M0,0 L8,4 L0,8 Z" fill="#42b883"/></marker></defs>
  <path d="M 550 190 L 585 190" stroke="#42b883" stroke-width="2" fill="none" marker-end="url(#a1)"/>
  <text x="567" y="182" text-anchor="middle" font-size="10" fill="#42b883">render</text>
</svg>
